<?xml version="1.0" encoding="UTF-8" standalone="no"?>
<!-- Created with Inkscape (http://www.inkscape.org/) -->

<svg
   xmlns:osb="http://www.openswatchbook.org/uri/2009/osb"
   xmlns:dc="http://purl.org/dc/elements/1.1/"
   xmlns:cc="http://creativecommons.org/ns#"
   xmlns:rdf="http://www.w3.org/1999/02/22-rdf-syntax-ns#"
   xmlns:svg="http://www.w3.org/2000/svg"
   xmlns="http://www.w3.org/2000/svg"
   xmlns:sodipodi="http://sodipodi.sourceforge.net/DTD/sodipodi-0.dtd"
   xmlns:inkscape="http://www.inkscape.org/namespaces/inkscape"
   width="64"
   height="64"
   id="svg3777"
   version="1.1"
   inkscape:version="0.48.2 r9819"
   sodipodi:docname="action.svg"
   inkscape:export-filename="/home/mapc/pr0j/nl/bomber/repositories/sauerbomber-base/packages/skins/sauerbomber/icons/action.png"
   inkscape:export-xdpi="90"
   inkscape:export-ydpi="90">
  <defs
     id="defs3779">
    <linearGradient
       id="linearGradient6071">
      <stop
         style="stop-color:#ffffff;stop-opacity:1;"
         offset="0"
         id="stop6073" />
      <stop
         id="stop6079"
         offset="0.63513511"
         style="stop-color:#ffffff;stop-opacity:0.7067669;" />
      <stop
         style="stop-color:#ffffff;stop-opacity:0;"
         offset="1"
         id="stop6075" />
    </linearGradient>
    <linearGradient
       id="linearGradient5950"
       osb:paint="solid">
      <stop
         style="stop-color:#ffffff;stop-opacity:1;"
         offset="0"
         id="stop5952" />
    </linearGradient>
    <filter
       inkscape:collect="always"
       id="filter4556">
      <feGaussianBlur
         inkscape:collect="always"
         stdDeviation="0.20929823"
         id="feGaussianBlur4558" />
    </filter>
    <filter
       inkscape:collect="always"
       id="filter4602"
       x="-0.50542413"
       width="2.0108483"
       y="-0.44478687"
       height="1.8895737">
      <feGaussianBlur
         inkscape:collect="always"
         stdDeviation="5.5018283"
         id="feGaussianBlur4604" />
    </filter>
    <filter
       inkscape:collect="always"
       id="filter4643"
       x="-0.13547451"
       width="1.270949"
       y="-0.11922122"
       height="1.2384424">
      <feGaussianBlur
         inkscape:collect="always"
         stdDeviation="1.4747169"
         id="feGaussianBlur4645" />
    </filter>
    <filter
       inkscape:collect="always"
       id="filter4657"
       x="-0.12505287"
       width="1.2501057"
       y="-0.11005076"
       height="1.2201015">
      <feGaussianBlur
         inkscape:collect="always"
         stdDeviation="0.78902272"
         id="feGaussianBlur4659" />
    </filter>
    <filter
       inkscape:collect="always"
       id="filter4709"
       x="-0.1615273"
       width="1.3230546"
       y="-0.14214838"
       height="1.2842968">
      <feGaussianBlur
         inkscape:collect="always"
         stdDeviation="1.7583163"
         id="feGaussianBlur4711" />
    </filter>
  </defs>
  <sodipodi:namedview
     id="base"
     pagecolor="#ffffff"
     bordercolor="#666666"
     borderopacity="1.0"
     inkscape:pageopacity="0.0"
     inkscape:pageshadow="2"
     inkscape:zoom="5.6568542"
     inkscape:cx="19.050846"
     inkscape:cy="57.048913"
     inkscape:document-units="px"
     inkscape:current-layer="layer1"
     showgrid="false"
     showguides="true"
     inkscape:window-width="1920"
     inkscape:window-height="1080"
     inkscape:window-x="1366"
     inkscape:window-y="0"
     inkscape:window-maximized="0"
     inkscape:guide-bbox="true">
    <inkscape:grid
       type="xygrid"
       id="grid4317"
       empspacing="5"
       visible="true"
       enabled="true"
       snapvisiblegridlinesonly="true" />
    <sodipodi:guide
       position="16,48.000017"
       orientation="32,0"
       id="guide5781" />
    <sodipodi:guide
       position="16,16.000017"
       orientation="0,32"
       id="guide5783" />
    <sodipodi:guide
       position="48,16.000017"
       orientation="-32,0"
       id="guide5785" />
    <sodipodi:guide
       position="48,48.000017"
       orientation="0,-32"
       id="guide5787" />
    <sodipodi:guide
       position="16,41.410731"
       orientation="-6.5892859,0"
       id="guide5811" />
    <sodipodi:guide
       position="16,48.000017"
       orientation="0,6.5892859"
       id="guide5813" />
    <sodipodi:guide
       position="41.410714,48.000017"
       orientation="0,6.5892859"
       id="guide5821" />
    <sodipodi:guide
       position="48,48.000017"
       orientation="6.5892859,0"
       id="guide5823" />
    <sodipodi:guide
       position="16,16.000031"
       orientation="-6.5892859,0"
       id="guide5827" />
    <sodipodi:guide
       position="22.589286,16.000031"
       orientation="0,-6.5892859"
       id="guide5833" />
    <sodipodi:guide
       position="48,22.589317"
       orientation="6.5892859,0"
       id="guide5839" />
    <sodipodi:guide
       position="48,16.000031"
       orientation="0,-6.5892859"
       id="guide5841" />
    <sodipodi:guide
       position="16,19.295061"
       orientation="3.2950439,0"
       id="guide5845" />
    <sodipodi:guide
       position="16,16.000017"
       orientation="0,3.2950001"
       id="guide5847" />
    <sodipodi:guide
       position="48,44.705034"
       orientation="-3.2949829,0"
       id="guide5857" />
    <sodipodi:guide
       position="48,48.000017"
       orientation="0,-3.2949982"
       id="guide5859" />
    <sodipodi:guide
       position="21,43.000017"
       orientation="22,0"
       id="guide5879" />
    <sodipodi:guide
       position="21,21.000017"
       orientation="0,22"
       id="guide5881" />
    <sodipodi:guide
       position="43,21.000017"
       orientation="-22,0"
       id="guide5883" />
    <sodipodi:guide
       position="43,43.000017"
       orientation="0,-22"
       id="guide5885" />
  </sodipodi:namedview>
  <metadata
     id="metadata3782">
    <rdf:RDF>
      <cc:Work
         rdf:about="">
        <dc:format>image/svg+xml</dc:format>
        <dc:type
           rdf:resource="http://purl.org/dc/dcmitype/StillImage" />
        <dc:title></dc:title>
      </cc:Work>
    </rdf:RDF>
  </metadata>
  <g
     inkscape:label="Layer 1"
     inkscape:groupmode="layer"
     id="layer1"
     transform="translate(0,-988.3622)">
    <rect
       style="fill:#4d5db3;fill-opacity:1;stroke:none;opacity:0.51826446"
       id="rect5902"
       width="174.73215"
       height="125.19643"
       x="-39.028599"
       y="969.75708"
       rx="1.9"
       ry="1.9"
       inkscape:export-filename="/home/mapc/pr0j/nl/bomber/repositories/sauerbomber-base/packages/skins/sauerbomber/icons/action.png"
       inkscape:export-xdpi="90"
       inkscape:export-ydpi="90" />
    <path
       style="fill:#ffffff;fill-opacity:1;fill-rule:nonzero;stroke:none;filter:url(#filter4556)"
       d="m 17.597813,1005.456 c -0.819593,0 -1.483695,0.6835 -1.5,1.5 l -0.0625,26.6875 c 0,0.021 -8.13e-4,0.042 0,0.062 0.03205,0.8013 0.690677,1.4375 1.5,1.4375 0.14782,0 0.300332,-0.026 0.4375,-0.062 0.03328,-0.01 0.06148,-0.02 0.09375,-0.031 l 23.375,-13.4062 -0.03125,-0.031 c 0.446751,-0.2594 0.75,-0.7263 0.75,-1.2812 0,-0.5037 -0.245254,-0.9478 -0.625,-1.2188 l -0.0625,-0.031 -23.1875,-13.4375 c -0.205299,-0.1093 -0.440406,-0.1875 -0.6875,-0.1875 z m 2.515266,4.6598 c 0.167252,0 0.316668,0.069 0.45563,0.1425 l 15.69073,9.084 0.05696,0.028 c 0.282639,0.1401 0.398675,0.485 0.398675,0.8259 0,0.3756 -0.181715,0.6787 -0.484105,0.8543 l 0,0.028 -15.804638,9.0842 c -0.02183,0.011 -0.03443,-0.011 -0.05696,0 -0.09284,0.025 -0.213188,0.056 -0.313244,0.056 -0.547806,0 -0.974992,-0.4258 -0.996689,-0.9682 -5.5e-4,-0.014 0,-0.043 0,-0.058 l 0.02848,-18.0543 c 8.71e-4,-0.5525 0.470409,-1.0252 1.025165,-1.0252 z"
       id="path3039"
       inkscape:connector-curvature="0"
       sodipodi:nodetypes="scccsscccscccsscccsccccscccscc"
       transform="matrix(1.6567019,0,0,1.6567019,-13.91119,-670.51825)" />
    <path
       style="opacity:1;fill:#ffffff;fill-opacity:1;fill-rule:nonzero;stroke:none;filter:url(#filter4709)"
       d="m 17.597813,1005.456 c -0.819593,0 -1.483695,0.6835 -1.5,1.5 l -0.0625,26.6875 c 0,0.021 -8.13e-4,0.042 0,0.062 0.03205,0.8013 0.690677,1.4375 1.5,1.4375 0.14782,0 0.300332,-0.026 0.4375,-0.062 0.03328,-0.01 0.06148,-0.02 0.09375,-0.031 l 23.375,-13.4062 -0.03125,-0.031 c 0.446751,-0.2594 0.75,-0.7263 0.75,-1.2812 0,-0.5037 -0.245254,-0.9478 -0.625,-1.2188 l -0.0625,-0.031 -23.1875,-13.4375 c -0.205299,-0.1093 -0.440406,-0.1875 -0.6875,-0.1875 z M 21,1011.2625 c 0.148171,0 0.280541,0.061 0.403649,0.1262 l 13.900645,8.0477 0.05046,0.025 c 0.227714,0.1626 0.353192,0.4296 0.353192,0.7316 0,0.3328 -0.160984,0.6013 -0.428876,0.7569 l 0,0.025 -14.001557,8.0478 c -0.01934,0.01 -0.0305,-0.01 -0.05046,0 -0.08225,0.022 -0.188867,0.05 -0.277508,0.05 -0.485309,0 -0.863759,-0.3772 -0.882981,-0.8577 -4.87e-4,-0.012 0,-0.038 0,-0.051 l 0.02523,-15.9946 c 0.0098,-0.4894 0.416742,-0.9082 0.908209,-0.9082 z"
       id="path4647"
       inkscape:connector-curvature="0"
       sodipodi:nodetypes="scccsscccscccsscccsccccscccs"
       transform="matrix(1.6567019,0,0,1.6567019,-13.91119,-670.51825)" />
    <g
       id="g5805"
       style="fill:#6363fd;fill-opacity:1" />
    <rect
       style="fill:#6363fd;fill-opacity:1;stroke:none"
       id="rect5873"
       width="0"
       height="0"
       x="43.046875"
       y="22.258928"
       transform="translate(0,988.3622)"
       rx="0"
       ry="0" />
    <path
       inkscape:connector-curvature="0"
       style="fill:#ffffff;fill-opacity:1;fill-rule:nonzero;stroke:none;filter:url(#filter4657)"
       d="m 23.599894,1011.5507 c -0.475055,0 -0.859981,0.3962 -0.869432,0.8693 l -0.03622,15.4687 c 0,0.011 -4.71e-4,0.024 0,0.036 0.01857,0.4643 0.400333,0.8331 0.869435,0.8331 0.08568,0 0.17408,-0.015 0.253584,-0.036 0.01929,-0.01 0.03564,-0.011 0.05433,-0.018 l 13.548667,-7.7706 -0.01811,-0.018 c 0.258945,-0.1503 0.434716,-0.4209 0.434716,-0.7425 0,-0.2919 -0.142153,-0.5493 -0.362264,-0.7064 l -0.03622,-0.018 -13.439989,-7.7887 c -0.118997,-0.064 -0.255269,-0.1085 -0.398491,-0.1085 z"
       id="path3061"
       transform="matrix(1.5021855,0,0,1.5021855,-13.369709,-512.78423)" />
  </g>
</svg>
