<?xml version="1.0" encoding="UTF-8" standalone="no"?>
<!-- Created with Inkscape (http://www.inkscape.org/) -->

<svg
   xmlns:osb="http://www.openswatchbook.org/uri/2009/osb"
   xmlns:dc="http://purl.org/dc/elements/1.1/"
   xmlns:cc="http://creativecommons.org/ns#"
   xmlns:rdf="http://www.w3.org/1999/02/22-rdf-syntax-ns#"
   xmlns:svg="http://www.w3.org/2000/svg"
   xmlns="http://www.w3.org/2000/svg"
   xmlns:sodipodi="http://sodipodi.sourceforge.net/DTD/sodipodi-0.dtd"
   xmlns:inkscape="http://www.inkscape.org/namespaces/inkscape"
   width="1024"
   height="512"
   id="svg2"
   version="1.1"
   inkscape:version="0.48.2 r9819"
   sodipodi:docname="text-logo.svg"
   inkscape:export-filename="/home/mapc/pr0j/nl/bomber/artz/logo/text-logo-1024.png"
   inkscape:export-xdpi="90"
   inkscape:export-ydpi="90">
  <defs
     id="defs4">
    <inkscape:path-effect
       is_visible="true"
       id="path-effect3927"
       effect="spiro" />
    <inkscape:path-effect
       effect="spiro"
       id="path-effect3909"
       is_visible="true" />
    <inkscape:path-effect
       is_visible="true"
       id="path-effect3889"
       effect="spiro" />
    <inkscape:path-effect
       is_visible="true"
       id="path-effect6917"
       effect="spiro" />
    <inkscape:path-effect
       effect="spiro"
       id="path-effect6913"
       is_visible="true" />
    <inkscape:path-effect
       effect="spiro"
       id="path-effect6875"
       is_visible="true" />
    <marker
       inkscape:stockid="Arrow1Mend"
       orient="auto"
       refY="0"
       refX="0"
       id="Arrow1Mend"
       style="overflow:visible">
      <path
         id="path3955"
         d="M 0,0 5,-5 -12.5,0 5,5 0,0 z"
         style="fill-rule:evenodd;stroke:#000000;stroke-width:1pt;marker-start:none"
         transform="matrix(-0.4,0,0,-0.4,-4,0)"
         inkscape:connector-curvature="0" />
    </marker>
    <marker
       style="overflow:visible"
       inkscape:stockid="InfiniteLineStart"
       id="InfiniteLineStart"
       refX="0"
       refY="0"
       orient="auto">
      <g
         id="g4191"
         transform="translate(-13,0)">
        <circle
           d="M 3.8,0 C 3.8,0.44182781 3.4418278,0.80000001 3,0.80000001 2.5581722,0.80000001 2.2,0.44182781 2.2,0 c 0,-0.44182781 0.3581722,-0.80000001 0.8,-0.80000001 0.4418278,0 0.8,0.3581722 0.8,0.80000001 z"
           id="circle4193"
           r="0.80000001"
           cy="0"
           cx="3"
           sodipodi:cx="3"
           sodipodi:cy="0"
           sodipodi:rx="0.80000001"
           sodipodi:ry="0.80000001" />
        <circle
           d="M 7.3,0 C 7.3,0.44182781 6.9418278,0.80000001 6.5,0.80000001 6.0581722,0.80000001 5.7,0.44182781 5.7,0 c 0,-0.44182781 0.3581722,-0.80000001 0.8,-0.80000001 0.4418278,0 0.8,0.3581722 0.8,0.80000001 z"
           id="circle4195"
           r="0.80000001"
           cy="0"
           cx="6.5"
           sodipodi:cx="6.5"
           sodipodi:cy="0"
           sodipodi:rx="0.80000001"
           sodipodi:ry="0.80000001" />
        <circle
           d="M 10.8,0 C 10.8,0.44182781 10.441828,0.80000001 10,0.80000001 9.5581722,0.80000001 9.2,0.44182781 9.2,0 c 0,-0.44182781 0.3581722,-0.80000001 0.8,-0.80000001 0.441828,0 0.8,0.3581722 0.8,0.80000001 z"
           id="circle4197"
           r="0.80000001"
           cy="0"
           cx="10"
           sodipodi:cx="10"
           sodipodi:cy="0"
           sodipodi:rx="0.80000001"
           sodipodi:ry="0.80000001" />
      </g>
    </marker>
    <marker
       inkscape:stockid="RazorWire"
       id="RazorWire"
       refX="0"
       refY="0"
       orient="auto">
       style=&quot;overflow:visible&quot;&gt;
      <path
   id="path4179"
   transform="scale(0.8,0.8)"
   style="fill:#808080;fill-opacity:1;fill-rule:evenodd;stroke:#000000;stroke-width:0.1pt"
   d="m 0.02272727,-0.74009011 0,1.4375 -7.78124997,2.31250001 18.4374997,0 -7.1874997,-2.31250001 0,-1.4375 7.2499997,-2.15624999 -18.4687497,0 7.74999997,2.15624999 z"
   inkscape:connector-curvature="0" />
</marker>
    <marker
       inkscape:stockid="Tail"
       orient="auto"
       refY="0"
       refX="0"
       id="Tail"
       style="overflow:visible">
      <g
         id="g3982"
         transform="scale(-1.2,-1.2)">
        <path
           id="path3984"
           d="M -3.8048674,-3.9585227 0.54352094,0"
           style="fill:none;stroke:#000000;stroke-width:0.80000001;stroke-linecap:round;marker-start:none;marker-end:none"
           inkscape:connector-curvature="0" />
        <path
           id="path3986"
           d="M -1.2866832,-3.9585227 3.0617053,0"
           style="fill:none;stroke:#000000;stroke-width:0.80000001;stroke-linecap:round;marker-start:none;marker-end:none"
           inkscape:connector-curvature="0" />
        <path
           id="path3988"
           d="M 1.3053582,-3.9585227 5.6537466,0"
           style="fill:none;stroke:#000000;stroke-width:0.80000001;stroke-linecap:round;marker-start:none;marker-end:none"
           inkscape:connector-curvature="0" />
        <path
           id="path3990"
           d="M -3.8048674,4.1775838 0.54352094,0.21974226"
           style="fill:none;stroke:#000000;stroke-width:0.80000001;stroke-linecap:round;marker-start:none;marker-end:none"
           inkscape:connector-curvature="0" />
        <path
           id="path3992"
           d="M -1.2866832,4.1775838 3.0617053,0.21974226"
           style="fill:none;stroke:#000000;stroke-width:0.80000001;stroke-linecap:round;marker-start:none;marker-end:none"
           inkscape:connector-curvature="0" />
        <path
           id="path3994"
           d="M 1.3053582,4.1775838 5.6537466,0.21974226"
           style="fill:none;stroke:#000000;stroke-width:0.80000001;stroke-linecap:round;marker-start:none;marker-end:none"
           inkscape:connector-curvature="0" />
      </g>
    </marker>
    <marker
       inkscape:stockid="Scissors"
       orient="auto"
       refY="0"
       refX="0"
       id="Scissors"
       style="overflow:visible">
      <path
         id="schere"
         style="marker-start:none"
         d="M 9.0898857,-3.6061018 C 8.1198849,-4.7769976 6.3697607,-4.7358294 5.0623558,-4.2327734 l -8.2124046,3.0779029 c -2.3882933,-1.3067135 -4.7482873,-0.9325372 -4.7482873,-1.5687873 0,-0.4973164 0.4566662,-0.3883222 0.3883068,-1.6831941 -0.065635,-1.2432767 -1.3635771,-2.1630796 -2.5903987,-2.0816435 -1.227271,-0.00735 -2.499439,0.9331613 -2.510341,2.2300611 -0.09143,1.3063864 1.007209,2.5196896 2.306764,2.6052316 1.5223406,0.2266616 4.218258,-0.6955566 5.482945,1.57086006 -0.9422847,1.73825774 -2.6140244,1.74307674 -4.1255107,1.65607034 -1.2548743,-0.072235 -2.7620933,0.2873979 -3.3606483,1.5208605 -0.578367,1.1820862 -0.0112,2.8646022 1.316749,3.226412 1.3401912,0.4918277 3.1806689,-0.129711 3.4993722,-1.6707242 0.2456585,-1.187823 -0.5953659,-1.7459574 -0.2725074,-2.1771537 0.2436135,-0.32536 1.7907806,-0.1368452 4.5471053,-1.3748244 L 5.6763468,4.2330688 C 6.8000164,4.5467672 8.1730685,4.5362646 9.1684433,3.4313614 L -0.05164093,-0.05372222 9.0898857,-3.6061018 z m -18.3078016,-1.900504 c 1.294559,0.7227998 1.1888392,2.6835702 -0.1564272,3.0632889 -1.2165179,0.423661 -2.7710269,-0.7589694 -2.3831779,-2.0774648 0.227148,-1.0818519 1.653387,-1.480632 2.5396051,-0.9858241 z m 0.056264,8.0173649 c 1.3508301,0.4988648 1.1214429,2.7844356 -0.2522207,3.091609 -0.9110594,0.3163391 -2.2135494,-0.1387976 -2.3056964,-1.2121394 -0.177609,-1.305055 1.356085,-2.4841482 2.5579171,-1.8794696 z"
         inkscape:connector-curvature="0" />
    </marker>
    <linearGradient
       id="linearGradient4821"
       osb:paint="solid">
      <stop
         style="stop-color:#000000;stop-opacity:1;"
         offset="0"
         id="stop4823" />
    </linearGradient>
    <inkscape:path-effect
       effect="envelope"
       id="path-effect4775"
       is_visible="true"
       yy="true"
       xx="true"
       bendpath1="m 248.57143,300.93362 c 80.39091,-0.63702 153.12545,-0.72984 214.28572,0"
       bendpath2="m 464.91956,300.93362 -2.06241,108.57142"
       bendpath3="m 248.57143,409.50504 214.28572,0"
       bendpath4="m 248.57143,300.93362 8.24963,100.3624"
       bendpath1-nodetypes="cc"
       bendpath2-nodetypes="cc"
       bendpath4-nodetypes="cc"
       bendpath3-nodetypes="cc" />
    <marker
       inkscape:stockid="Arrow1Mstart"
       orient="auto"
       refY="0"
       refX="0"
       id="Arrow1Mstart"
       style="overflow:visible">
      <path
         id="path3952"
         d="M 0,0 5,-5 -12.5,0 5,5 0,0 z"
         style="fill-rule:evenodd;stroke:#000000;stroke-width:1pt;marker-start:none"
         transform="matrix(0.4,0,0,0.4,4,0)"
         inkscape:connector-curvature="0" />
    </marker>
    <marker
       inkscape:stockid="Arrow1Lstart"
       orient="auto"
       refY="0"
       refX="0"
       id="Arrow1Lstart"
       style="overflow:visible">
      <path
         id="path3946"
         d="M 0,0 5,-5 -12.5,0 5,5 0,0 z"
         style="fill-rule:evenodd;stroke:#000000;stroke-width:1pt;marker-start:none"
         transform="matrix(0.8,0,0,0.8,10,0)"
         inkscape:connector-curvature="0" />
    </marker>
  </defs>
  <sodipodi:namedview
     id="base"
     pagecolor="#ffffff"
     bordercolor="#666666"
     borderopacity="1.0"
     inkscape:pageopacity="0.0"
     inkscape:pageshadow="2"
     inkscape:zoom="0.90509668"
     inkscape:cx="557.76117"
     inkscape:cy="20.569841"
     inkscape:document-units="px"
     inkscape:current-layer="layer1"
     showgrid="false"
     inkscape:window-width="1920"
     inkscape:window-height="1080"
     inkscape:window-x="1366"
     inkscape:window-y="0"
     inkscape:window-maximized="0"
     fit-margin-top="100"
     fit-margin-left="100"
     fit-margin-right="100"
     fit-margin-bottom="100"
     showguides="true"
     inkscape:guide-bbox="true">
    <sodipodi:guide
       orientation="0,1"
       position="289.85096,100.45725"
       id="guide3059" />
    <sodipodi:guide
       orientation="0,1"
       position="467.73251,114.26785"
       id="guide3906" />
    <sodipodi:guide
       orientation="0,1"
       position="650.03348,283.86305"
       id="guide3908" />
    <sodipodi:guide
       orientation="1,0"
       position="338.46456,613.10968"
       id="guide3910" />
    <sodipodi:guide
       orientation="0,1"
       position="428.51019,271.15715"
       id="guide3912" />
    <sodipodi:guide
       orientation="0,1"
       position="527.94708,336.34368"
       id="guide3914" />
    <sodipodi:guide
       orientation="1,0"
       position="351.95313,405.93188"
       id="guide3916" />
    <sodipodi:guide
       orientation="1,0"
       position="404.29688,357.49438"
       id="guide3920" />
    <sodipodi:guide
       orientation="1,0"
       position="416.90921,388.27178"
       id="guide3922" />
    <sodipodi:guide
       orientation="1,0"
       position="390.94514,442.96208"
       id="guide3924" />
    <sodipodi:guide
       orientation="0,1"
       position="338.46456,323.08538"
       id="guide3926" />
    <sodipodi:guide
       orientation="0,1"
       position="660.5296,165.64365"
       id="guide3968" />
    <sodipodi:guide
       orientation="0,1"
       position="437.69531,152.61155"
       id="guide3972" />
    <sodipodi:guide
       orientation="1,0"
       position="371.44922,323.72098"
       id="guide3976" />
  </sodipodi:namedview>
  <metadata
     id="metadata7">
    <rdf:RDF>
      <cc:Work
         rdf:about="">
        <dc:format>image/svg+xml</dc:format>
        <dc:type
           rdf:resource="http://purl.org/dc/dcmitype/StillImage" />
        <dc:title></dc:title>
      </cc:Work>
    </rdf:RDF>
  </metadata>
  <g
     inkscape:label="Layer 1"
     inkscape:groupmode="layer"
     id="layer1"
     transform="translate(35.71875,-184.54749)">
    <flowRoot
       xml:space="preserve"
       id="flowRoot4260"
       style="font-size:40px;font-style:normal;font-weight:normal;line-height:125%;letter-spacing:0px;word-spacing:0px;fill:#000000;fill-opacity:1;stroke:none;font-family:Sans"
       transform="matrix(1.8799885,0,0,1.9481703,-15.273275,-306.3048)"><flowRegion
         id="flowRegion4262"><rect
           id="rect4264"
           width="2900"
           height="875"
           x="-768.75"
           y="3280.3186" /></flowRegion><flowPara
         id="flowPara4266" /></flowRoot>    <path
       sodipodi:nodetypes="cscccsccccscccsssscccccccccsccscscscccsccscscscsccsssssssssssssscscscssssscscscs"
       inkscape:connector-curvature="0"
       id="path4436"
       d="m 442.68919,229.2814 c 0,0 -25.04058,6.1772 -35.08353,14.41801 -7.0577,5.79125 -13.77191,19.32337 -17.15075,26.87588 -3.6301,-0.25567 -7.28107,2.3129 -10.80334,2.86474 -14.0746,4.16255 -28.78104,-0.59111 -42.50399,-4.25944 -8.94618,-2.77188 -18.31631,-4.96268 -27.75402,-5.03218 -0.62919,-0.005 -1.24355,0.005 -1.8733,0.0189 -13.86968,-0.15805 -27.04208,6.62926 -36.50216,16.9058 -1.47087,1.7086 -3.93026,3.51225 -5.20159,5.65409 l -16.5324,-16.50986 c -1.61979,-1.60332 -3.71651,-2.37612 -5.80176,-2.31843 -2.08526,0.058 -4.14749,0.93405 -5.67448,2.65741 l -15.20469,17.13198 c -0.033,-0.0243 -0.17862,0.0361 -0.63656,0.71619 -3.35304,-0.56475 -6.78761,-0.86695 -10.29409,-0.86695 -35.22903,0 -63.78328,29.5898 -63.78328,66.0965 0,36.5067 28.55425,66.11536 63.78328,66.11536 35.22905,0 63.78331,-29.60866 63.78331,-66.11536 0,-5.14291 -0.58256,-10.14085 -1.65506,-14.94568 l 15.20468,-17.1508 c 3.02902,-3.41858 2.94862,-8.72395 -0.29099,-11.93017 l -16.33231,-16.32148 c 0.90783,-0.53441 1.70083,-1.30454 2.21887,-2.26166 7.67537,-8.69749 17.64033,-16.31464 29.3363,-17.03771 19.23128,-1.8806 36.80911,8.265 55.6899,10.13968 10.34629,1.7899 20.87411,-0.22384 30.62762,-3.90129 0.46872,-0.008 0.90308,-0.0882 1.30949,-0.22601 4.81551,5.68094 13.93007,15.75356 21.38843,19.6951 10.60113,5.60247 35.99289,8.53775 35.99289,8.53775 -11.22926,-5.86008 -11.75612,-3.83047 -12.49475,-8.87701 0,0 8.77969,-2.72367 16.96886,-4.27822 6.14187,-1.1659 10.31693,-0.6625 12.02188,-0.33926 -1.75616,-0.43095 -6.13453,-1.62301 -8.42076,-3.39246 -2.87795,-2.22732 -9.2756,-4.97563 -9.2756,-4.97563 0,0 6.81903,-1.14064 10.45778,-2.33701 3.63872,-1.19639 11.22162,-4.93791 11.22162,-4.93791 l -18.66028,-1.07434 -15.4593,2.12973 c -0.14078,-1.38231 5.85282,-3.36091 12.05826,-5.03216 6.56225,-1.7673 13.36774,-3.18513 13.36774,-3.18513 l -10.20312,-1.82818 c 0,0 6.37289,-7.12624 11.87637,-10.06431 5.50346,-2.93809 21.04282,-5.91799 21.04282,-5.91799 -7.80317,1.38613 -14.80694,-0.95803 -23.37082,-0.88577 -6.47265,0.0548 -14.23998,3.00976 -21.67941,1.3947 0,0 5.97773,-4.56473 11.69453,-6.69076 5.71678,-2.12594 22.69789,-4.39131 22.69789,-4.39131 0,0 -19.59957,-1.71462 -29.04533,-0.90466 -9.44572,0.80999 -27.28111,5.57873 -27.28111,5.57873 z m -260.35295,78.59208 c 8.27963,0 14.98643,10.35848 14.98643,23.1442 0,12.78573 -6.7068,23.14415 -14.98643,23.14415 -8.27965,0 -15.00463,-10.35842 -15.00463,-23.14415 0,-12.78572 6.72498,-23.1442 15.00463,-23.1442 z m 33.1011,1.48897 c 8.27963,0 15.00463,10.37727 15.00463,23.16297 0,12.78578 -6.725,23.14415 -15.00463,23.14415 -8.27963,0 -14.98643,-10.35837 -14.98643,-23.14415 0,-12.7857 6.7068,-23.16297 14.98643,-23.16297 z m -33.81043,13.9091 c -1.87824,0.0852 -3.74798,0.6458 -5.40165,1.67736 -5.3501,3.33746 -7.14463,10.48016 -4.01943,15.94457 3.12521,5.4645 10.00009,7.18231 15.35019,3.84479 5.35009,-3.33735 7.14462,-10.46117 4.01942,-15.92569 0,0 -1.92194,-0.6435 -5.18342,1.63967 -3.22674,2.25891 -5.61991,4.69293 -5.61991,4.69293 -0.35898,0.651 -1.74428,-1.67017 1.40043,-7.06767 1.97763,-3.39425 2.81905,-4.42899 2.81905,-4.42899 -1.10448,-0.3052 -2.23772,-0.42799 -3.36468,-0.37697 z m 32.95562,0.90466 c -1.87824,0.0852 -3.72981,0.66471 -5.38348,1.69626 -5.35011,3.33738 -7.16282,10.46125 -4.03759,15.92568 3.12519,5.46452 10.00008,7.2011 15.35017,3.86368 5.3501,-3.3374 7.14462,-10.4801 4.01941,-15.94459 0,0 -1.90373,-0.62469 -5.16523,1.65855 -3.22673,2.25891 -5.6199,4.67405 -5.6199,4.67405 -0.35898,0.651 -1.76247,-1.67017 1.38225,-7.06767 1.97762,-3.39426 2.81904,-4.42902 2.81904,-4.42902 -1.10447,-0.30514 -2.23772,-0.42797 -3.36467,-0.37694 z"
       style="fill:#000000;fill-opacity:1;stroke:none"
       inkscape:export-filename="/home/mapc/pr0j/nl/bomber/repositories/sauerbomber-content/packages/skins/redandwhite/logo_1024.png"
       inkscape:export-xdpi="90"
       inkscape:export-ydpi="90" />
    <g
       transform="matrix(0.74142138,0,0,0.76831062,111.54193,177.78856)"
       style="font-size:40px;font-style:normal;font-weight:normal;line-height:125%;letter-spacing:0px;word-spacing:0px;fill:#000000;fill-opacity:1;stroke:none;font-family:Sans"
       id="flowRoot4438"
       inkscape:export-filename="/home/mapc/pr0j/nl/bomber/repositories/sauerbomber-content/packages/skins/redandwhite/logo_1024.png"
       inkscape:export-xdpi="90"
       inkscape:export-ydpi="90">
      <path
         d="m 262.3794,236.6875 c 4.61083,2.80812 8.73631,4.8362 12.37646,6.08423 3.64012,1.24806 7.17625,1.87208 10.6084,1.87207 3.25876,1e-5 5.89353,-0.72802 7.9043,-2.18408 2.04538,-1.49071 3.06808,-3.41478 3.06812,-5.77222 -4e-5,-3.67478 -4.00419,-7.41892 -12.01246,-11.23242 -2.39211,-1.14402 -4.24684,-2.04538 -5.56421,-2.70411 -4.95753,-2.56539 -8.73634,-5.6335 -11.33642,-9.20434 -2.60011,-3.57076 -3.90016,-7.50557 -3.90015,-11.80445 -10e-6,-6.30951 2.40942,-11.37103 7.22827,-15.18457 4.81883,-3.84808 11.24974,-5.77215 19.29273,-5.77222 2.98141,7e-5 5.92819,0.27742 8.84033,0.83203 2.94674,0.55476 6.03219,1.40413 9.25635,2.5481 l 0,12.16846 c -3.32817,-1.69867 -6.20561,-2.94672 -8.63232,-3.74414 -2.39213,-0.79731 -4.50688,-1.19599 -6.34424,-1.19605 -2.77347,6e-5 -5.06156,0.67609 -6.86426,2.02808 -1.76809,1.35211 -2.65213,3.0335 -2.6521,5.04419 -3e-5,3.05083 4.14279,6.67363 12.42847,10.86841 3.25875,1.6641 5.82417,2.99882 7.69629,4.00415 4.12544,2.28812 7.17622,5.02689 9.15234,8.21631 2.01069,3.18948 3.01606,6.98562 3.01612,11.38843 -6e-5,6.82961 -2.61749,12.35914 -7.8523,16.58863 -5.20024,4.22949 -12.06449,6.34423 -20.59278,6.34424 -3.36282,-1e-5 -6.79494,-0.32935 -10.29638,-0.98804 -3.50149,-0.62402 -7.21096,-1.57739 -11.12843,-2.86011 L 262.3794,236.6875"
         style="font-size:106.50002289px;font-variant:normal;font-weight:bold;font-stretch:normal;text-align:start;writing-mode:lr-tb;text-anchor:start;font-family:FrizQuadrata BT;-inkscape-font-specification:FrizQuadrata BT Bold"
         id="path3151"
         inkscape:connector-curvature="0" />
      <path
         d="m 352.70681,230.91528 c -3.95218,1.52542 -6.60428,2.91213 -7.9563,4.16016 -1.31741,1.24807 -1.9761,2.77345 -1.97608,4.57617 -2e-5,1.94142 0.65867,3.48415 1.97608,4.62818 1.31735,1.10938 3.12008,1.66407 5.4082,1.66406 l 0.83203,0 -4.47217,9.46436 c -1.56008,0.13867 -2.8428,0.22534 -3.84814,0.26001 -0.97073,0.0347 -1.78543,0.052 -2.4441,0.052 -5.16554,0 -9.41236,-1.49072 -12.74048,-4.47217 -3.29346,-2.98144 -4.94019,-6.77758 -4.94018,-11.38843 -10e-6,-3.88279 1.23071,-7.08958 3.69214,-9.62036 2.46141,-2.53074 6.15355,-4.38547 11.07641,-5.56421 1.3867,-0.34665 3.25877,-0.74533 5.61622,-1.19605 6.58688,-1.31735 9.88034,-3.31076 9.88037,-5.98022 -3e-5,-1.59469 -0.57205,-2.80807 -1.71607,-3.64014 -1.1094,-0.83199 -2.77346,-1.24801 -4.99218,-1.24805 -2.04544,4e-5 -4.19485,0.24272 -6.44825,0.72803 -2.21877,0.48539 -4.57619,1.23075 -7.07226,2.23608 l 4.99218,-11.38843 c 2.28807,-0.65864 4.38548,-1.14399 6.29224,-1.45605 1.94138,-0.31196 3.81345,-0.46797 5.61621,-0.46802 4.2988,5e-5 7.9216,0.46807 10.86841,1.40405 2.98141,0.93609 5.40816,2.35747 7.28028,4.26416 1.62934,1.69878 2.79072,3.70952 3.48413,6.03223 0.72798,2.3228 1.09199,6.2056 1.09204,11.64844 l 0,0.93604 0,11.85645 c -5e-5,2.63478 0.5373,4.50684 1.61206,5.61621 1.07466,1.10938 3.1894,1.88941 6.34424,2.34009 l -4.05615,8.94433 c -1.38677,0.10401 -2.56548,0.17334 -3.53613,0.20801 -0.97076,0.0693 -1.76812,0.104 -2.39209,0.10401 -5.16558,-1e-5 -9.37773,-1.43872 -12.63648,-4.31617 -3.22416,-2.9121 -4.83622,-6.72557 -4.83618,-11.44043 l 0,-8.94434"
         style="font-size:106.50002289px;font-variant:normal;font-weight:bold;font-stretch:normal;text-align:start;writing-mode:lr-tb;text-anchor:start;font-family:FrizQuadrata BT;-inkscape-font-specification:FrizQuadrata BT Bold"
         id="path3153"
         inkscape:connector-curvature="0" />
      <path
         d="m 416.40921,204.08227 4.88818,0 c 3.50143,5e-5 6.60421,-0.0866 9.30836,-0.26001 2.70405,-0.20796 5.28681,-0.50263 7.74829,-0.88403 l 0,42.27759 c -6e-5,2.21876 0.27729,4.05616 0.83203,5.51221 0.55463,1.45606 1.49066,2.77344 2.80811,3.95215 l -21.94483,0 -0.46802,-3.74414 c -2.14945,1.80274 -4.35087,3.12012 -6.60425,3.95215 -2.25345,0.8667 -4.66287,1.30005 -7.22827,1.30005 -5.72024,0 -10.31374,-1.69873 -13.78052,-5.09619 -3.43214,-3.43213 -5.1482,-8.02563 -5.1482,-13.78053 l 0,-23.60889 c 0,-2.1147 -0.24268,-3.86543 -0.72802,-5.2522 -0.48536,-1.42134 -1.28272,-2.87739 -2.3921,-4.36816 l 4.78419,0 c 3.50145,5e-5 6.60423,-0.0866 9.30835,-0.26001 2.70408,-0.20796 5.28684,-0.50263 7.74829,-0.88403 l 0,28.86109 c -3e-5,4.7842 0.55466,8.18165 1.66406,10.19238 1.10935,2.01075 2.92942,3.01612 5.46021,3.01612 2.53073,0 4.31613,-0.93603 5.3562,-2.80811 1.04,-1.87206 1.56002,-5.13084 1.56006,-9.77637 l 0,-18.72071 c -4e-5,-1.97603 -0.24271,-3.69209 -0.72803,-5.14819 -0.48539,-1.45601 -1.30008,-2.94673 -2.44409,-4.47217"
         style="font-size:106.50002289px;font-variant:normal;font-weight:bold;font-stretch:normal;text-align:start;writing-mode:lr-tb;text-anchor:start;font-family:FrizQuadrata BT;-inkscape-font-specification:FrizQuadrata BT Bold"
         id="path3155"
         inkscape:connector-curvature="0" />
      <path
         d="m 481.09965,219.94287 c -4e-5,-2.56539 -0.55473,-4.5068 -1.66407,-5.82422 -1.1094,-1.35201 -2.75613,-2.02804 -4.94018,-2.02808 -2.11478,4e-5 -3.79617,0.6934 -5.04419,2.08008 -1.2134,1.38676 -1.8721,3.31083 -1.97608,5.77222 l 13.62452,0 m 18.6687,9.41235 -32.70923,0 c -2e-5,0.20804 -0.0174,0.52005 -0.052,0.93604 -0.0347,0.41604 -0.052,0.69338 -0.052,0.83203 -2e-5,4.54152 1.3867,8.09499 4.16016,10.6604 2.77341,2.56544 6.60422,3.84816 11.49243,3.84815 2.14938,10e-6 4.62814,-0.41601 7.43629,-1.24805 2.84272,-0.86669 6.29218,-2.27074 10.34839,-4.21216 l -3.84815,12.37647 c -3.81352,1.28272 -7.21098,2.20142 -10.19238,2.7561 -2.98149,0.58936 -5.8936,0.88404 -8.73633,0.88404 -9.32571,0 -16.70998,-2.40943 -22.15284,-7.22828 -5.40821,-4.8535 -8.11231,-11.35374 -8.11231,-19.50073 0,-7.93894 2.6001,-14.47384 7.8003,-19.60474 5.23485,-5.13081 11.87376,-7.69624 19.91675,-7.69629 7.28024,5e-5 13.20846,2.39214 17.78467,7.17627 4.61079,4.74955 6.91621,10.95511 6.91626,18.6167 l 0,1.40405"
         style="font-size:106.50002289px;font-variant:normal;font-weight:bold;font-stretch:normal;text-align:start;writing-mode:lr-tb;text-anchor:start;font-family:FrizQuadrata BT;-inkscape-font-specification:FrizQuadrata BT Bold"
         id="path3157"
         inkscape:connector-curvature="0" />
      <path
         d="m 505.69658,254.68018 c 1.31738,-1.17871 2.25341,-2.49609 2.80811,-3.95215 0.55468,-1.45605 0.83202,-3.29345 0.83203,-5.51221 l 0,-31.51319 c -1e-5,-2.32271 -0.27735,-4.21211 -0.83203,-5.66821 -0.5547,-1.49068 -1.45606,-2.80806 -2.70411,-3.95215 l 4.78418,0 c 3.50146,5e-5 6.60424,-0.0866 9.30836,-0.26001 2.70408,-0.20796 5.28684,-0.50263 7.74829,-0.88403 l 0.41601,6.91626 c 1.04002,-2.25337 2.5134,-3.9521 4.42017,-5.0962 1.94138,-1.14399 4.31613,-1.71601 7.12427,-1.71606 0.41598,5e-5 0.97067,0.0347 1.66406,0.104 0.69332,0.0347 1.54269,0.10406 2.5481,0.20801 l 0,12.89649 c -1.07475,-0.10397 -2.09745,-0.1733 -3.06812,-0.20801 -0.93607,-0.0693 -1.78543,-0.10396 -2.54809,-0.104 -3.6055,4e-5 -6.2056,0.86673 -7.8003,2.6001 -1.56008,1.69876 -2.34011,4.55887 -2.34009,8.58032 l 0,18.09668 c -2e-5,2.21876 0.27732,4.05616 0.83204,5.51221 0.58932,1.45606 1.52536,2.77344 2.8081,3.95215 l -26.00098,0"
         style="font-size:106.50002289px;font-variant:normal;font-weight:bold;font-stretch:normal;text-align:start;writing-mode:lr-tb;text-anchor:start;font-family:FrizQuadrata BT;-inkscape-font-specification:FrizQuadrata BT Bold"
         id="path3159"
         inkscape:connector-curvature="0" />
      <path
         d="m 548.96222,254.47217 c 1.28271,-1.17871 2.20141,-2.49609 2.7561,-3.95215 0.58935,-1.49071 0.88403,-3.36278 0.88404,-5.61621 l 0,-53.71803 c -10e-6,-2.21868 -0.27735,-4.03875 -0.83203,-5.4602 -0.5547,-1.45599 -1.49073,-2.7907 -2.80811,-4.00416 l 9.25635,0 c 1.97606,8e-5 3.9868,-0.10393 6.03223,-0.31201 2.04539,-0.20793 4.26414,-0.51994 6.65625,-0.93603 l 0.052,64.84645 c 0.48533,0.13868 1.04001,0.24268 1.66406,0.31201 0.624,0.0693 1.83738,0.10401 3.64014,0.104 3.84811,1e-5 6.82956,-1.42137 8.94434,-4.26416 2.1147,-2.84276 3.17208,-6.8469 3.17212,-12.01245 -4e-5,-5.02683 -1.16142,-8.99631 -3.48413,-11.90845 -2.32279,-2.91207 -5.63358,-4.5588 -9.93238,-4.94019 l 5.2002,-9.67236 1.40405,0 c 8.32027,5e-5 14.85518,2.2188 19.60474,6.65625 4.74946,4.43754 7.12421,10.55643 7.12427,18.35669 -6e-5,8.87502 -2.9815,15.80861 -8.94434,20.80079 -5.92827,4.95752 -14.19657,7.43628 -24.80493,7.43628 -3.91751,0 -8.02566,-0.15601 -12.32447,-0.46802 -4.26417,-0.27734 -8.68433,-0.69336 -13.2605,-1.24805"
         style="font-size:106.50002289px;font-variant:normal;font-weight:bold;font-stretch:normal;text-align:start;writing-mode:lr-tb;text-anchor:start;font-family:FrizQuadrata BT;-inkscape-font-specification:FrizQuadrata BT Bold"
         id="path3161"
         inkscape:connector-curvature="0" />
      <path
         d="m 642.61774,245.42383 c 3.12009,1e-5 5.46017,-1.26537 7.02027,-3.79614 1.59469,-2.53075 2.39205,-6.27489 2.39209,-11.23243 -4e-5,-5.51218 -0.83207,-9.759 -2.4961,-12.74048 -1.62943,-3.01607 -3.96951,-4.52413 -7.02026,-4.52417 -3.08548,4e-5 -5.4429,1.26542 -7.07227,3.79614 -1.59475,2.49613 -2.39211,6.17094 -2.39209,11.02442 -2e-5,5.5469 0.83201,9.84572 2.4961,12.89649 1.6987,3.05079 4.05612,4.57618 7.07226,4.57617 m -29.48511,-15.44458 c 0,-7.83493 2.87744,-14.38717 8.63233,-19.65675 5.75486,-5.30415 12.93113,-7.95624 21.52881,-7.9563 8.21627,6e-5 15.06319,2.56548 20.54078,7.6963 5.47748,5.1309 8.21624,11.40579 8.21631,18.82471 -7e-5,7.86964 -2.87751,14.42189 -8.63233,19.65674 -5.75493,5.23486 -12.9312,7.85229 -21.52881,7.8523 -8.25101,-1e-5 -15.11526,-2.5481 -20.59278,-7.64429 -5.44288,-5.13085 -8.16431,-11.38842 -8.16431,-18.77271"
         style="font-size:106.50002289px;font-variant:normal;font-weight:bold;font-stretch:normal;text-align:start;writing-mode:lr-tb;text-anchor:start;font-family:FrizQuadrata BT;-inkscape-font-specification:FrizQuadrata BT Bold"
         id="path3163"
         inkscape:connector-curvature="0" />
      <path
         d="m 677.30307,254.68018 c 1.31738,-1.17871 2.25341,-2.49609 2.80811,-3.95215 0.55468,-1.45605 0.83202,-3.29345 0.83203,-5.51221 l 0,-31.51319 c -10e-6,-2.25337 -0.29469,-4.12544 -0.88404,-5.61621 -0.55469,-1.49067 -1.47339,-2.82539 -2.7561,-4.00415 l 4.88819,0 c 3.64012,5e-5 6.7949,-0.10395 9.46435,-0.31201 2.66942,-0.24263 5.20018,-0.58931 7.59229,-1.04004 l 0.41602,5.09619 c 2.14938,-1.76802 4.33346,-3.05073 6.55224,-3.84814 2.21872,-0.83198 4.62814,-1.248 7.22828,-1.24805 3.18941,5e-5 6.06685,0.57207 8.63232,1.71606 2.56538,1.1441 4.9748,2.94683 7.22827,5.40821 3.25874,-2.53072 6.25751,-4.35078 8.99634,-5.46021 2.73871,-1.10932 5.56415,-1.66401 8.47632,-1.66406 5.5468,5e-5 10.01897,1.69878 13.41651,5.09619 3.39737,3.39751 5.0961,7.93901 5.09619,13.62452 l 0,23.76489 c -9e-5,2.21876 0.27726,4.05616 0.83204,5.51221 0.55459,1.45606 1.49063,2.77344 2.8081,3.95215 l -26.00098,0 c 1.28265,-1.17871 2.20135,-2.49609 2.7561,-3.95215 0.55462,-1.45605 0.83196,-3.29345 0.83204,-5.51221 l 0,-18.09668 c -8e-5,-4.81882 -0.55476,-8.23361 -1.66407,-10.24439 -1.10944,-2.04537 -2.92951,-3.06807 -5.4602,-3.06811 -2.49616,4e-5 -4.28156,0.93607 -5.35621,2.8081 -1.04009,1.83744 -1.56011,5.07889 -1.56006,9.72437 l 0,18.87671 c -5e-5,2.21876 0.27729,4.05616 0.83204,5.51221 0.55462,1.45606 1.49066,2.77344 2.8081,3.95215 l -26.00098,0 c 1.28268,-1.17871 2.20138,-2.49609 2.7561,-3.95215 0.58932,-1.45605 0.884,-3.29345 0.88404,-5.51221 l 0,-18.09668 c -4e-5,-4.81882 -0.55473,-8.23361 -1.66407,-10.24439 -1.10941,-2.04537 -2.94681,-3.06807 -5.5122,-3.06811 -2.49613,4e-5 -4.28153,0.93607 -5.35621,2.8081 -1.04006,1.83744 -1.56008,5.07889 -1.56005,9.72437 l 0,18.87671 c -3e-5,2.21876 0.27731,4.05616 0.83203,5.51221 0.58933,1.45606 1.52536,2.77344 2.8081,3.95215 l -26.00098,0"
         style="font-size:106.50002289px;font-variant:normal;font-weight:bold;font-stretch:normal;text-align:start;writing-mode:lr-tb;text-anchor:start;font-family:FrizQuadrata BT;-inkscape-font-specification:FrizQuadrata BT Bold"
         id="path3165"
         inkscape:connector-curvature="0" />
      <path
         d="m 774.23474,254.47217 c 1.28271,-1.17871 2.20141,-2.49609 2.75611,-3.95215 0.58935,-1.49071 0.88402,-3.36278 0.88403,-5.61621 l 0,-53.71803 c -10e-6,-2.21868 -0.27735,-4.03875 -0.83203,-5.4602 -0.55469,-1.45599 -1.49073,-2.7907 -2.80811,-4.00416 l 9.25635,0 c 1.97606,8e-5 3.9868,-0.10393 6.03223,-0.31201 2.04539,-0.20793 4.26414,-0.51994 6.65625,-0.93603 l 0.052,64.84645 c 0.48533,0.13868 1.04002,0.24268 1.66407,0.31201 0.62399,0.0693 1.83737,0.10401 3.64013,0.104 3.84811,1e-5 6.82956,-1.42137 8.94434,-4.26416 2.11471,-2.84276 3.17208,-6.8469 3.17212,-12.01245 -4e-5,-5.02683 -1.16142,-8.99631 -3.48413,-11.90845 -2.32279,-2.91207 -5.63358,-4.5588 -9.93238,-4.94019 l 5.2002,-9.67236 1.40405,0 c 8.32027,5e-5 14.85518,2.2188 19.60474,6.65625 4.74946,4.43754 7.12421,10.55643 7.12427,18.35669 -6e-5,8.87502 -2.9815,15.80861 -8.94433,20.80079 -5.92828,4.95752 -14.19658,7.43628 -24.80494,7.43628 -3.91751,0 -8.02566,-0.15601 -12.32447,-0.46802 -4.26417,-0.27734 -8.68433,-0.69336 -13.2605,-1.24805"
         style="font-size:106.50002289px;font-variant:normal;font-weight:bold;font-stretch:normal;text-align:start;writing-mode:lr-tb;text-anchor:start;font-family:FrizQuadrata BT;-inkscape-font-specification:FrizQuadrata BT Bold"
         id="path3167"
         inkscape:connector-curvature="0" />
      <path
         d="m 872.15443,219.94287 c -4e-5,-2.56539 -0.55473,-4.5068 -1.66407,-5.82422 -1.1094,-1.35201 -2.75613,-2.02804 -4.94018,-2.02808 -2.11478,4e-5 -3.79617,0.6934 -5.04419,2.08008 -1.21341,1.38676 -1.8721,3.31083 -1.97608,5.77222 l 13.62452,0 m 18.6687,9.41235 -32.70923,0 c -3e-5,0.20804 -0.0174,0.52005 -0.052,0.93604 -0.0347,0.41604 -0.052,0.69338 -0.052,0.83203 -2e-5,4.54152 1.3867,8.09499 4.16016,10.6604 2.77341,2.56544 6.60422,3.84816 11.49243,3.84815 2.14938,10e-6 4.62814,-0.41601 7.43628,-1.24805 2.84273,-0.86669 6.29219,-2.27074 10.3484,-4.21216 l -3.84815,12.37647 c -3.81353,1.28272 -7.21098,2.20142 -10.19238,2.7561 -2.98149,0.58936 -5.8936,0.88404 -8.73633,0.88404 -9.32571,0 -16.70999,-2.40943 -22.15284,-7.22828 -5.40821,-4.8535 -8.11231,-11.35374 -8.11231,-19.50073 0,-7.93894 2.6001,-14.47384 7.8003,-19.60474 5.23485,-5.13081 11.87376,-7.69624 19.91675,-7.69629 7.28024,5e-5 13.20845,2.39214 17.78467,7.17627 4.61079,4.74955 6.91621,10.95511 6.91626,18.6167 l 0,1.40405"
         style="font-size:106.50002289px;font-variant:normal;font-weight:bold;font-stretch:normal;text-align:start;writing-mode:lr-tb;text-anchor:start;font-family:FrizQuadrata BT;-inkscape-font-specification:FrizQuadrata BT Bold"
         id="path3169"
         inkscape:connector-curvature="0" />
      <path
         d="m 896.75134,254.68018 c 1.31738,-1.17871 2.25342,-2.49609 2.80811,-3.95215 0.55468,-1.45605 0.83202,-3.29345 0.83203,-5.51221 l 0,-31.51319 c -10e-6,-2.32271 -0.27735,-4.21211 -0.83203,-5.66821 -0.55469,-1.49068 -1.45606,-2.80806 -2.7041,-3.95215 l 4.78418,0 c 3.50145,5e-5 6.60423,-0.0866 9.30835,-0.26001 2.70408,-0.20796 5.28684,-0.50263 7.74829,-0.88403 l 0.41602,6.91626 c 1.04001,-2.25337 2.5134,-3.9521 4.42016,-5.0962 1.94138,-1.14399 4.31613,-1.71601 7.12427,-1.71606 0.41598,5e-5 0.97067,0.0347 1.66407,0.104 0.69332,0.0347 1.54268,0.10406 2.54809,0.20801 l 0,12.89649 c -1.07474,-0.10397 -2.09745,-0.1733 -3.06811,-0.20801 -0.93607,-0.0693 -1.78544,-0.10396 -2.5481,-0.104 -3.6055,4e-5 -6.2056,0.86673 -7.80029,2.6001 -1.56009,1.69876 -2.34012,4.55887 -2.34009,8.58032 l 0,18.09668 c -3e-5,2.21876 0.27732,4.05616 0.83203,5.51221 0.58933,1.45606 1.52536,2.77344 2.80811,3.95215 l -26.00099,0"
         style="font-size:106.50002289px;font-variant:normal;font-weight:bold;font-stretch:normal;text-align:start;writing-mode:lr-tb;text-anchor:start;font-family:FrizQuadrata BT;-inkscape-font-specification:FrizQuadrata BT Bold"
         id="path3171"
         inkscape:connector-curvature="0" />
    </g>
    <g
       transform="matrix(0.87444108,0,0,0.90615452,78.771156,243.87226)"
       style="font-size:40px;font-style:normal;font-weight:normal;line-height:125%;letter-spacing:0px;word-spacing:0px;fill:#000000;fill-opacity:1;stroke:none;font-family:Sans"
       id="flowRoot4452"
       inkscape:export-filename="/home/mapc/pr0j/nl/bomber/repositories/sauerbomber-content/packages/skins/redandwhite/logo_1024.png"
       inkscape:export-xdpi="90"
       inkscape:export-ydpi="90">
      <path
         d="m 281.03125,183.43323 c -1.31252,0.375 -2.56057,0.65625 -3.74414,0.84375 -1.18361,0.1875 -2.32619,0.28125 -3.42774,0.28125 -4.25391,0 -7.68164,-1.18359 -10.2832,-3.55078 -2.58984,-2.36718 -3.88476,-5.45507 -3.88476,-9.26367 0,-3.72655 1.27734,-6.78514 3.83203,-9.17578 2.5664,-2.40232 5.85936,-3.60349 9.8789,-3.60352 0.83202,3e-5 1.69921,0.0645 2.60157,0.19336 0.91404,0.11721 1.86912,0.30471 2.86523,0.5625 l 0.47461,4.92187 c -1.13674,-0.60935 -2.17385,-1.05466 -3.11133,-1.33593 -0.93751,-0.28123 -1.85744,-0.42186 -2.75976,-0.42188 -2.02736,2e-5 -3.62111,0.70901 -4.78125,2.12695 -1.16017,1.40627 -1.74025,3.3633 -1.74024,5.8711 -10e-6,3.09376 0.70312,5.4961 2.10938,7.20703 1.41795,1.69922 3.416,2.54883 5.99414,2.54883 1.16014,0 2.34959,-0.17578 3.56836,-0.52735 1.23044,-0.35155 2.56052,-0.89648 3.99023,-1.63476 l -1.58203,4.95703"
         style="font-size:36px;font-variant:normal;font-weight:bold;font-stretch:normal;text-align:start;writing-mode:lr-tb;text-anchor:start;font-family:FrizQuadrata BT;-inkscape-font-specification:FrizQuadrata BT Bold"
         id="path3116"
         inkscape:connector-curvature="0" />
      <path
         d="m 295.23437,166.87464 1.65235,0 c 1.18358,1e-5 2.2324,-0.0293 3.14648,-0.0879 0.91405,-0.0703 1.78709,-0.16991 2.61914,-0.29883 l 0,14.29101 c -2e-5,0.75001 0.0937,1.3711 0.28125,1.86328 0.18748,0.49219 0.50389,0.9375 0.94922,1.33594 l -7.41797,0 -0.1582,-1.26562 c -0.72657,0.60937 -1.47071,1.05468 -2.23242,1.33593 -0.76173,0.29297 -1.57618,0.43946 -2.44336,0.43946 -1.9336,0 -3.48633,-0.57422 -4.6582,-1.72266 -1.16016,-1.16015 -1.74024,-2.71289 -1.74024,-4.6582 l 0,-7.98047 c 0,-0.71483 -0.082,-1.30663 -0.24609,-1.77539 -0.16407,-0.48045 -0.4336,-0.97264 -0.8086,-1.47656 l 1.61719,0 c 1.18359,1e-5 2.23242,-0.0293 3.14649,-0.0879 0.91405,-0.0703 1.7871,-0.16991 2.61914,-0.29883 l 0,9.75586 c -10e-6,1.61719 0.18749,2.76563 0.5625,3.44531 0.37499,0.67969 0.99022,1.01953 1.8457,1.01953 0.85546,0 1.45897,-0.3164 1.81055,-0.94922 0.35155,-0.63281 0.52733,-1.73437 0.52734,-3.30469 l 0,-6.32812 c -1e-5,-0.66795 -0.082,-1.24803 -0.24609,-1.74024 -0.16408,-0.49217 -0.43947,-0.99607 -0.82618,-1.51171"
         style="font-size:36px;font-variant:normal;font-weight:bold;font-stretch:normal;text-align:start;writing-mode:lr-tb;text-anchor:start;font-family:FrizQuadrata BT;-inkscape-font-specification:FrizQuadrata BT Bold"
         id="path3118"
         inkscape:connector-curvature="0" />
      <path
         d="m 305.79883,183.90784 c 0.43359,-0.39844 0.74414,-0.84375 0.93164,-1.33594 0.19922,-0.5039 0.29882,-1.13671 0.29883,-1.89844 l 0,-18.1582 c -10e-6,-0.74998 -0.0938,-1.36521 -0.28125,-1.8457 -0.1875,-0.49217 -0.50391,-0.94334 -0.94922,-1.35352 l 3.1289,0 c 0.66797,3e-5 1.34766,-0.0351 2.03907,-0.10547 0.6914,-0.0703 1.4414,-0.17575 2.25,-0.3164 l 0.0176,21.91992 c 0.16406,0.0469 0.35156,0.082 0.5625,0.10547 0.21093,0.0234 0.62109,0.0352 1.23047,0.0352 1.30077,1e-5 2.30859,-0.48046 3.02344,-1.4414 0.71483,-0.96093 1.07225,-2.31445 1.07227,-4.06055 -2e-5,-1.69921 -0.3926,-3.041 -1.17774,-4.02539 -0.78517,-0.98436 -1.90431,-1.541 -3.35742,-1.66992 l 1.75781,-3.26953 0.47461,0 c 2.81249,1e-5 5.02147,0.75001 6.62696,2.25 1.60544,1.50001 2.40818,3.56837 2.4082,6.20508 -2e-5,3 -1.00783,5.34375 -3.02344,7.03125 -2.00392,1.67578 -4.79884,2.51367 -8.38476,2.51367 -1.32423,0 -2.7129,-0.0527 -4.16602,-0.15821 -1.44141,-0.0937 -2.93555,-0.23437 -4.48242,-0.42187"
         style="font-size:36px;font-variant:normal;font-weight:bold;font-stretch:normal;text-align:start;writing-mode:lr-tb;text-anchor:start;font-family:FrizQuadrata BT;-inkscape-font-specification:FrizQuadrata BT Bold"
         id="path3120"
         inkscape:connector-curvature="0" />
      <path
         d="m 338.89844,172.23596 c -10e-6,-0.86717 -0.18751,-1.52342 -0.5625,-1.96875 -0.37501,-0.45701 -0.93165,-0.68553 -1.66992,-0.68554 -0.71486,1e-5 -1.28322,0.23439 -1.70508,0.70312 -0.41017,0.46877 -0.63282,1.11916 -0.66797,1.95117 l 4.60547,0 m 6.31054,3.18164 -11.05664,0 c 0,0.0703 -0.006,0.17579 -0.0176,0.31641 -0.0117,0.14063 -0.0176,0.23438 -0.0176,0.28125 -1e-5,1.53516 0.46874,2.73633 1.40625,3.60352 0.93749,0.86719 2.23241,1.30078 3.88476,1.30078 0.72655,0 1.56444,-0.14062 2.51367,-0.42188 0.96093,-0.29296 2.12694,-0.76757 3.49805,-1.42383 l -1.30078,4.1836 c -1.28908,0.43359 -2.43751,0.74414 -3.44531,0.93164 -1.00783,0.19922 -1.9922,0.29883 -2.95313,0.29883 -3.15235,0 -5.64844,-0.81446 -7.48828,-2.44336 -1.82812,-1.64062 -2.74219,-3.83789 -2.74219,-6.5918 0,-2.68358 0.87891,-4.89256 2.63672,-6.62695 1.76953,-1.73436 4.01367,-2.60155 6.73242,-2.60156 2.46093,10e-6 4.46483,0.80861 6.01172,2.42578 1.55858,1.60548 2.33788,3.70313 2.33789,6.29297 l 0,0.4746"
         style="font-size:36px;font-variant:normal;font-weight:bold;font-stretch:normal;text-align:start;writing-mode:lr-tb;text-anchor:start;font-family:FrizQuadrata BT;-inkscape-font-specification:FrizQuadrata BT Bold"
         id="path3122"
         inkscape:connector-curvature="0" />
      <path
         d="m 357.86523,183.97815 c 4.26562,-7.04296 6.97851,-11.68944 8.13868,-13.93945 1.17186,-2.24999 1.7578,-3.77342 1.75781,-4.57031 -1e-5,-0.80858 -0.24025,-1.42381 -0.7207,-1.84571 -0.46876,-0.42185 -1.16017,-0.63279 -2.07422,-0.63281 -0.69142,2e-5 -1.45899,0.18166 -2.30274,0.54492 -0.84375,0.35159 -1.85156,0.9258 -3.02344,1.72266 l 1.35352,-4.85156 c 1.42968,-0.43357 2.64843,-0.74412 3.65625,-0.93164 1.01952,-0.1992 1.92773,-0.29881 2.72461,-0.29883 2.23827,2e-5 4.01952,0.57424 5.34375,1.72265 1.33592,1.14846 2.00389,2.68362 2.00391,4.60547 -2e-5,1.24221 -0.43947,2.77736 -1.31836,4.60547 -0.87892,1.82814 -2.91213,5.14454 -6.09961,9.94922 0.85546,0.11719 1.52342,0.19922 2.0039,0.24609 0.48046,0.0469 0.91405,0.0703 1.30078,0.0703 0.83202,0 1.66991,-0.11719 2.51368,-0.35157 0.85545,-0.24609 1.93943,-0.6914 3.25195,-1.33593 l -1.54688,5.29101 -16.96289,0"
         style="font-size:36px;font-variant:normal;font-weight:bold;font-stretch:normal;text-align:start;writing-mode:lr-tb;text-anchor:start;font-family:FrizQuadrata BT;-inkscape-font-specification:FrizQuadrata BT Bold"
         id="path3124"
         inkscape:connector-curvature="0" />
      <path
         d="m 415.99609,169.86292 0,3.88476 c -1.21877,0.83204 -2.37307,1.44728 -3.46289,1.84571 -1.07814,0.38672 -2.14455,0.58008 -3.19922,0.58007 -0.53908,1e-5 -1.07814,-0.0469 -1.61718,-0.14062 -0.53908,-0.0937 -1.07815,-0.22851 -1.61719,-0.4043 -0.28127,-0.0937 -0.69728,-0.24022 -1.24805,-0.43945 -2.56642,-0.8789 -4.51759,-1.31835 -5.85351,-1.31836 -0.99611,1e-5 -2.03907,0.22267 -3.12891,0.66797 -1.07813,0.4336 -2.29102,1.13087 -3.63867,2.0918 l 0,-3.88477 c 1.2539,-0.84374 2.44921,-1.47069 3.58594,-1.88086 1.13671,-0.42186 2.20897,-0.6328 3.21679,-0.63281 1.37109,1e-5 3.07616,0.33986 5.11524,1.01953 0.0351,0.0117 0.0586,0.0176 0.0703,0.0176 0.21092,0.0703 0.53319,0.18165 0.9668,0.33398 1.81639,0.64454 3.22263,0.96681 4.21875,0.9668 0.99607,10e-6 2.02146,-0.21679 3.07617,-0.65039 1.05466,-0.43358 2.22654,-1.11913 3.51562,-2.05664"
         style="font-size:36px;font-variant:normal;font-weight:bold;font-stretch:normal;text-align:start;writing-mode:lr-tb;text-anchor:start;font-family:FrizQuadrata BT;-inkscape-font-specification:FrizQuadrata BT Bold"
         id="path3126"
         inkscape:connector-curvature="0" />
      <path
         d="m 431.11328,177.89612 c 1.55859,0.94922 2.95312,1.63477 4.18359,2.05664 1.23047,0.42188 2.42578,0.63282 3.58594,0.63281 1.10155,1e-5 1.99218,-0.24609 2.67188,-0.73828 0.69139,-0.5039 1.03709,-1.15429 1.03711,-1.95117 -2e-5,-1.24218 -1.35353,-2.5078 -4.06055,-3.79687 -0.8086,-0.38671 -1.43555,-0.6914 -1.88086,-0.91407 -1.67579,-0.86717 -2.95313,-1.90428 -3.83203,-3.11133 -0.87891,-1.20701 -1.31836,-2.53709 -1.31836,-3.99023 0,-2.13279 0.81445,-3.84373 2.44336,-5.13281 1.6289,-1.30076 3.80273,-1.95115 6.52148,-1.95117 1.0078,2e-5 2.0039,0.0938 2.98828,0.28125 0.99608,0.18752 2.03905,0.47463 3.12891,0.86132 l 0,4.11329 c -1.12501,-0.5742 -2.09767,-0.99608 -2.91797,-1.26563 -0.8086,-0.26951 -1.52345,-0.40427 -2.14453,-0.4043 -0.93751,3e-5 -1.71095,0.22854 -2.32031,0.68555 -0.59767,0.45705 -0.89649,1.02541 -0.89649,1.70508 0,1.03127 1.40039,2.25587 4.20118,3.67383 1.10154,0.56251 1.96873,1.01368 2.60156,1.35351 1.39451,0.77345 2.42576,1.69923 3.09375,2.77735 0.67967,1.07813 1.01951,2.36133 1.01953,3.84961 -2e-5,2.30859 -0.88478,4.17773 -2.6543,5.60742 -1.75782,1.42969 -4.07813,2.14453 -6.96093,2.14453 -1.13673,0 -2.29689,-0.11133 -3.48047,-0.33399 -1.1836,-0.21093 -2.43751,-0.5332 -3.76172,-0.96679 l -1.24805,-5.18555"
         style="font-size:36px;font-variant:normal;font-weight:bold;font-stretch:normal;text-align:start;writing-mode:lr-tb;text-anchor:start;font-family:FrizQuadrata BT;-inkscape-font-specification:FrizQuadrata BT Bold"
         id="path3128"
         inkscape:connector-curvature="0" />
      <path
         d="m 461.64648,175.94495 c -1.33594,0.51563 -2.23243,0.98438 -2.68945,1.40625 -0.44532,0.42188 -0.66798,0.9375 -0.66797,1.54687 -1e-5,0.65626 0.22265,1.17774 0.66797,1.56446 0.4453,0.375 1.05468,0.5625 1.82813,0.5625 l 0.28125,0 -1.51172,3.19922 c -0.52735,0.0469 -0.96095,0.0762 -1.30078,0.0879 -0.32814,0.0117 -0.60353,0.0176 -0.82618,0.0176 -1.74609,0 -3.18164,-0.5039 -4.30664,-1.51171 -1.11328,-1.00781 -1.66992,-2.29102 -1.66992,-3.84961 0,-1.3125 0.41602,-2.39648 1.24805,-3.25196 0.83203,-0.85546 2.08007,-1.48241 3.74414,-1.88086 0.46874,-0.11717 1.10155,-0.25194 1.89844,-0.40429 2.22655,-0.4453 3.33983,-1.11913 3.33984,-2.02149 -1e-5,-0.53905 -0.19337,-0.9492 -0.58008,-1.23047 -0.37501,-0.28123 -0.93751,-0.42186 -1.6875,-0.42187 -0.69141,1e-5 -1.41797,0.082 -2.17969,0.24609 -0.75,0.16408 -1.54688,0.41603 -2.39062,0.75586 l 1.6875,-3.84961 c 0.77343,-0.22264 1.48241,-0.3867 2.12695,-0.49219 0.65624,-0.10545 1.28906,-0.15818 1.89844,-0.1582 1.45311,2e-5 2.67772,0.15822 3.67383,0.47461 1.0078,0.31642 1.82811,0.79689 2.46094,1.44141 0.55076,0.57423 0.94334,1.25392 1.17773,2.03906 0.24608,0.78517 0.36912,2.09767 0.36914,3.9375 l 0,0.31641 0,4.00781 c -2e-5,0.89063 0.18162,1.52344 0.54492,1.89844 0.36327,0.375 1.07811,0.63867 2.14453,0.79101 l -1.37109,3.02344 c -0.46877,0.0352 -0.86721,0.0586 -1.19531,0.0703 -0.32814,0.0234 -0.59768,0.0352 -0.8086,0.0352 -1.7461,0 -3.16993,-0.48633 -4.27148,-1.45899 -1.08986,-0.98437 -1.63478,-2.27343 -1.63477,-3.86718 l 0,-3.02344"
         style="font-size:36px;font-variant:normal;font-weight:bold;font-stretch:normal;text-align:start;writing-mode:lr-tb;text-anchor:start;font-family:FrizQuadrata BT;-inkscape-font-specification:FrizQuadrata BT Bold"
         id="path3130"
         inkscape:connector-curvature="0" />
      <path
         d="m 483.17969,166.87464 1.65234,0 c 1.18358,1e-5 2.23241,-0.0293 3.14649,-0.0879 0.91404,-0.0703 1.78709,-0.16991 2.61914,-0.29883 l 0,14.29101 c -2e-5,0.75001 0.0937,1.3711 0.28125,1.86328 0.18748,0.49219 0.50388,0.9375 0.94921,1.33594 l -7.41796,0 -0.15821,-1.26562 c -0.72657,0.60937 -1.47071,1.05468 -2.23242,1.33593 -0.76173,0.29297 -1.57618,0.43946 -2.44336,0.43946 -1.9336,0 -3.48633,-0.57422 -4.6582,-1.72266 -1.16016,-1.16015 -1.74024,-2.71289 -1.74024,-4.6582 l 0,-7.98047 c 0,-0.71483 -0.082,-1.30663 -0.24609,-1.77539 -0.16406,-0.48045 -0.43359,-0.97264 -0.80859,-1.47656 l 1.61718,0 c 1.18359,1e-5 2.23242,-0.0293 3.14649,-0.0879 0.91405,-0.0703 1.7871,-0.16991 2.61914,-0.29883 l 0,9.75586 c -10e-6,1.61719 0.18749,2.76563 0.5625,3.44531 0.37499,0.67969 0.99022,1.01953 1.8457,1.01953 0.85546,0 1.45897,-0.3164 1.81055,-0.94922 0.35155,-0.63281 0.52733,-1.73437 0.52734,-3.30469 l 0,-6.32812 c -1e-5,-0.66795 -0.082,-1.24803 -0.24609,-1.74024 -0.16408,-0.49217 -0.43947,-0.99607 -0.82617,-1.51171"
         style="font-size:36px;font-variant:normal;font-weight:bold;font-stretch:normal;text-align:start;writing-mode:lr-tb;text-anchor:start;font-family:FrizQuadrata BT;-inkscape-font-specification:FrizQuadrata BT Bold"
         id="path3132"
         inkscape:connector-curvature="0" />
      <path
         d="m 505.04687,172.23596 c -1e-5,-0.86717 -0.18751,-1.52342 -0.5625,-1.96875 -0.37501,-0.45701 -0.93165,-0.68553 -1.66992,-0.68554 -0.71485,1e-5 -1.28321,0.23439 -1.70508,0.70312 -0.41016,0.46877 -0.63282,1.11916 -0.66796,1.95117 l 4.60546,0 m 6.31055,3.18164 -11.05664,0 c -10e-6,0.0703 -0.006,0.17579 -0.0176,0.31641 -0.0117,0.14063 -0.0176,0.23438 -0.0176,0.28125 0,1.53516 0.46875,2.73633 1.40625,3.60352 0.9375,0.86719 2.23242,1.30078 3.88477,1.30078 0.72655,0 1.56444,-0.14062 2.51367,-0.42188 0.96092,-0.29296 2.12694,-0.76757 3.49805,-1.42383 l -1.30078,4.1836 c -1.28908,0.43359 -2.43752,0.74414 -3.44531,0.93164 -1.00783,0.19922 -1.9922,0.29883 -2.95313,0.29883 -3.15235,0 -5.64844,-0.81446 -7.48828,-2.44336 -1.82813,-1.64062 -2.74219,-3.83789 -2.74219,-6.5918 0,-2.68358 0.87891,-4.89256 2.63672,-6.62695 1.76953,-1.73436 4.01367,-2.60155 6.73242,-2.60156 2.46093,10e-6 4.46483,0.80861 6.01172,2.42578 1.55858,1.60548 2.33787,3.70313 2.33789,6.29297 l 0,0.4746"
         style="font-size:36px;font-variant:normal;font-weight:bold;font-stretch:normal;text-align:start;writing-mode:lr-tb;text-anchor:start;font-family:FrizQuadrata BT;-inkscape-font-specification:FrizQuadrata BT Bold"
         id="path3134"
         inkscape:connector-curvature="0" />
      <path
         d="m 513.36133,183.97815 c 0.44531,-0.39844 0.76172,-0.84375 0.94922,-1.33594 0.18749,-0.49218 0.28124,-1.11327 0.28125,-1.86328 l 0,-10.65234 c -1e-5,-0.78514 -0.0938,-1.42381 -0.28125,-1.91602 -0.1875,-0.50389 -0.49219,-0.9492 -0.91407,-1.33593 l 1.61719,0 c 1.18359,1e-5 2.23242,-0.0293 3.14649,-0.0879 0.91405,-0.0703 1.7871,-0.16991 2.61914,-0.29883 l 0.14062,2.33789 c 0.35156,-0.7617 0.8496,-1.33592 1.49414,-1.72266 0.65624,-0.3867 1.45898,-0.58006 2.40821,-0.58008 0.14061,2e-5 0.32811,0.0117 0.5625,0.0352 0.23436,0.0117 0.52147,0.0352 0.86132,0.0703 l 0,4.35938 c -0.36329,-0.0352 -0.70899,-0.0586 -1.03711,-0.0703 -0.31641,-0.0234 -0.60352,-0.0351 -0.86132,-0.0351 -1.21876,1e-5 -2.09767,0.29298 -2.63672,0.8789 -0.52736,0.57424 -0.79103,1.54103 -0.79102,2.9004 l 0,6.11718 c -1e-5,0.75001 0.0937,1.3711 0.28125,1.86328 0.19921,0.49219 0.51562,0.9375 0.94922,1.33594 l -8.78906,0"
         style="font-size:36px;font-variant:normal;font-weight:bold;font-stretch:normal;text-align:start;writing-mode:lr-tb;text-anchor:start;font-family:FrizQuadrata BT;-inkscape-font-specification:FrizQuadrata BT Bold"
         id="path3136"
         inkscape:connector-curvature="0" />
      <path
         d="m 527.98633,183.90784 c 0.43359,-0.39844 0.74414,-0.84375 0.93164,-1.33594 0.19922,-0.5039 0.29882,-1.13671 0.29883,-1.89844 l 0,-18.1582 c -1e-5,-0.74998 -0.0938,-1.36521 -0.28125,-1.8457 -0.1875,-0.49217 -0.50391,-0.94334 -0.94922,-1.35352 l 3.1289,0 c 0.66797,3e-5 1.34766,-0.0351 2.03907,-0.10547 0.6914,-0.0703 1.4414,-0.17575 2.25,-0.3164 l 0.0176,21.91992 c 0.16406,0.0469 0.35156,0.082 0.5625,0.10547 0.21093,0.0234 0.62109,0.0352 1.23047,0.0352 1.30077,1e-5 2.30859,-0.48046 3.02344,-1.4414 0.71483,-0.96093 1.07225,-2.31445 1.07227,-4.06055 -2e-5,-1.69921 -0.3926,-3.041 -1.17774,-4.02539 -0.78517,-0.98436 -1.90431,-1.541 -3.35742,-1.66992 l 1.75781,-3.26953 0.47461,0 c 2.81249,1e-5 5.02147,0.75001 6.62696,2.25 1.60544,1.50001 2.40818,3.56837 2.4082,6.20508 -2e-5,3 -1.00783,5.34375 -3.02344,7.03125 -2.00392,1.67578 -4.79884,2.51367 -8.38476,2.51367 -1.32423,0 -2.7129,-0.0527 -4.16602,-0.15821 -1.44141,-0.0937 -2.93555,-0.23437 -4.48242,-0.42187"
         style="font-size:36px;font-variant:normal;font-weight:bold;font-stretch:normal;text-align:start;writing-mode:lr-tb;text-anchor:start;font-family:FrizQuadrata BT;-inkscape-font-specification:FrizQuadrata BT Bold"
         id="path3138"
         inkscape:connector-curvature="0" />
      <path
         d="m 549.7832,183.97815 c 0.44531,-0.39844 0.76172,-0.84375 0.94922,-1.33594 0.1875,-0.49218 0.28125,-1.11327 0.28125,-1.86328 l 0,-10.65234 c 0,-0.78514 -0.0937,-1.42381 -0.28125,-1.91602 -0.1875,-0.50389 -0.49219,-0.9492 -0.91406,-1.33593 l 1.61719,0 c 1.18359,1e-5 2.23241,-0.0293 3.14648,-0.0879 0.91406,-0.0703 1.7871,-0.16991 2.61914,-0.29883 l 0.14063,2.33789 c 0.35155,-0.7617 0.8496,-1.33592 1.49414,-1.72266 0.65624,-0.3867 1.45897,-0.58006 2.4082,-0.58008 0.14061,2e-5 0.32811,0.0117 0.5625,0.0352 0.23436,0.0117 0.52147,0.0352 0.86133,0.0703 l 0,4.35938 c -0.3633,-0.0352 -0.709,-0.0586 -1.03711,-0.0703 -0.31642,-0.0234 -0.60353,-0.0351 -0.86133,-0.0351 -1.21876,1e-5 -2.09766,0.29298 -2.63672,0.8789 -0.52735,0.57424 -0.79102,1.54103 -0.79101,2.9004 l 0,6.11718 c -1e-5,0.75001 0.0937,1.3711 0.28125,1.86328 0.19921,0.49219 0.51561,0.9375 0.94922,1.33594 l -8.78907,0"
         style="font-size:36px;font-variant:normal;font-weight:bold;font-stretch:normal;text-align:start;writing-mode:lr-tb;text-anchor:start;font-family:FrizQuadrata BT;-inkscape-font-specification:FrizQuadrata BT Bold"
         id="path3140"
         inkscape:connector-curvature="0" />
      <path
         d="m 574.56836,175.94495 c -1.33595,0.51563 -2.23243,0.98438 -2.68945,1.40625 -0.44532,0.42188 -0.66798,0.9375 -0.66797,1.54687 -1e-5,0.65626 0.22265,1.17774 0.66797,1.56446 0.4453,0.375 1.05467,0.5625 1.82812,0.5625 l 0.28125,0 -1.51172,3.19922 c -0.52735,0.0469 -0.96094,0.0762 -1.30078,0.0879 -0.32813,0.0117 -0.60352,0.0176 -0.82617,0.0176 -1.7461,0 -3.18164,-0.5039 -4.30664,-1.51171 -1.11328,-1.00781 -1.66992,-2.29102 -1.66992,-3.84961 0,-1.3125 0.41601,-2.39648 1.24804,-3.25196 0.83203,-0.85546 2.08008,-1.48241 3.74414,-1.88086 0.46875,-0.11717 1.10156,-0.25194 1.89844,-0.40429 2.22655,-0.4453 3.33983,-1.11913 3.33985,-2.02149 -2e-5,-0.53905 -0.19337,-0.9492 -0.58008,-1.23047 -0.37501,-0.28123 -0.93751,-0.42186 -1.6875,-0.42187 -0.69142,1e-5 -1.41798,0.082 -2.17969,0.24609 -0.75001,0.16408 -1.54688,0.41603 -2.39063,0.75586 l 1.6875,-3.84961 c 0.77344,-0.22264 1.48242,-0.3867 2.12696,-0.49219 0.65624,-0.10545 1.28905,-0.15818 1.89844,-0.1582 1.45311,2e-5 2.67772,0.15822 3.67382,0.47461 1.0078,0.31642 1.82811,0.79689 2.46094,1.44141 0.55077,0.57423 0.94334,1.25392 1.17774,2.03906 0.24607,0.78517 0.36912,2.09767 0.36914,3.9375 l 0,0.31641 0,4.00781 c -2e-5,0.89063 0.18162,1.52344 0.54492,1.89844 0.36326,0.375 1.0781,0.63867 2.14453,0.79101 l -1.37109,3.02344 c -0.46877,0.0352 -0.86721,0.0586 -1.19532,0.0703 -0.32814,0.0234 -0.59767,0.0352 -0.80859,0.0352 -1.74611,0 -3.16994,-0.48633 -4.27149,-1.45899 -1.08985,-0.98437 -1.63477,-2.27343 -1.63476,-3.86718 l 0,-3.02344"
         style="font-size:36px;font-variant:normal;font-weight:bold;font-stretch:normal;text-align:start;writing-mode:lr-tb;text-anchor:start;font-family:FrizQuadrata BT;-inkscape-font-specification:FrizQuadrata BT Bold"
         id="path3142"
         inkscape:connector-curvature="0" />
      <path
         d="m 586.66211,170.37268 -2.00391,0 0,-2.5664 c 1.6875,-0.30467 3.03516,-0.97264 4.04297,-2.00391 1.01953,-1.04295 1.69921,-2.4492 2.03906,-4.21875 l 2.37305,0 0,5.29102 4.02539,0 0,4.42968 c -0.37501,-0.32811 -0.76173,-0.56248 -1.16015,-0.70312 -0.39845,-0.15233 -0.87306,-0.2285 -1.42383,-0.22852 l -1.44141,0 0,6.76758 c -10e-6,1.69923 0.26952,2.78907 0.80859,3.26953 0.55078,0.46876 1.62304,0.71485 3.2168,0.73828 l -1.54687,2.93555 c -0.62111,0.17578 -1.20119,0.30469 -1.74024,0.38672 -0.52735,0.082 -1.0254,0.12305 -1.49414,0.12305 -1.88672,0 -3.31055,-0.47461 -4.27148,-1.42383 -0.94922,-0.94922 -1.42383,-2.37305 -1.42383,-4.27149 l 0,-8.52539"
         style="font-size:36px;font-variant:normal;font-weight:bold;font-stretch:normal;text-align:start;writing-mode:lr-tb;text-anchor:start;font-family:FrizQuadrata BT;-inkscape-font-specification:FrizQuadrata BT Bold"
         id="path3144"
         inkscape:connector-curvature="0" />
      <path
         d="m 610.44531,172.23596 c -10e-6,-0.86717 -0.18751,-1.52342 -0.5625,-1.96875 -0.37501,-0.45701 -0.93165,-0.68553 -1.66992,-0.68554 -0.71485,1e-5 -1.28321,0.23439 -1.70508,0.70312 -0.41016,0.46877 -0.63282,1.11916 -0.66797,1.95117 l 4.60547,0 m 6.31055,3.18164 -11.05664,0 c -10e-6,0.0703 -0.006,0.17579 -0.0176,0.31641 -0.0117,0.14063 -0.0176,0.23438 -0.0176,0.28125 0,1.53516 0.46874,2.73633 1.40625,3.60352 0.93749,0.86719 2.23241,1.30078 3.88477,1.30078 0.72655,0 1.56444,-0.14062 2.51367,-0.42188 0.96092,-0.29296 2.12694,-0.76757 3.49805,-1.42383 l -1.30078,4.1836 c -1.28908,0.43359 -2.43752,0.74414 -3.44532,0.93164 -1.00782,0.19922 -1.9922,0.29883 -2.95312,0.29883 -3.15235,0 -5.64844,-0.81446 -7.48828,-2.44336 -1.82813,-1.64062 -2.74219,-3.83789 -2.74219,-6.5918 0,-2.68358 0.8789,-4.89256 2.63672,-6.62695 1.76952,-1.73436 4.01366,-2.60155 6.73242,-2.60156 2.46092,10e-6 4.46483,0.80861 6.01172,2.42578 1.55857,1.60548 2.33787,3.70313 2.33789,6.29297 l 0,0.4746"
         style="font-size:36px;font-variant:normal;font-weight:bold;font-stretch:normal;text-align:start;writing-mode:lr-tb;text-anchor:start;font-family:FrizQuadrata BT;-inkscape-font-specification:FrizQuadrata BT Bold"
         id="path3146"
         inkscape:connector-curvature="0" />
      <path
         d="m 618.75977,183.97815 c 0.44531,-0.39844 0.76171,-0.84375 0.94921,-1.33594 0.1875,-0.49218 0.28125,-1.11327 0.28125,-1.86328 l 0,-10.65234 c 0,-0.7617 -0.0996,-1.39452 -0.29882,-1.89844 -0.18751,-0.50389 -0.49805,-0.95506 -0.93164,-1.35351 l 1.65234,0 c 1.18359,1e-5 2.23242,-0.0293 3.14648,-0.0879 0.91406,-0.0703 1.78711,-0.16991 2.61914,-0.29883 l 0.14063,1.75781 c 0.77343,-0.60936 1.51171,-1.05467 2.21484,-1.33594 0.71484,-0.28123 1.45312,-0.42186 2.21485,-0.42187 1.91014,1e-5 3.42771,0.57423 4.55273,1.72265 1.12498,1.14846 1.68748,2.69533 1.6875,4.64063 l 0,7.92773 c -2e-5,0.75001 0.0937,1.3711 0.28125,1.86328 0.18748,0.49219 0.49803,0.9375 0.93164,1.33594 l -8.78906,0 c 0.4453,-0.39844 0.76171,-0.84375 0.94922,-1.33594 0.18749,-0.49218 0.28124,-1.11327 0.28125,-1.86328 l 0,-5.51953 c -10e-6,-1.89843 -0.1758,-3.22264 -0.52735,-3.97265 -0.33985,-0.74999 -0.91993,-1.12499 -1.74023,-1.125 -0.77345,1e-5 -1.31251,0.31642 -1.61719,0.94921 -0.29297,0.62111 -0.43946,2.00392 -0.43945,4.14844 l 0,5.51953 c -10e-6,0.75001 0.0937,1.3711 0.28125,1.86328 0.19921,0.49219 0.51562,0.9375 0.94922,1.33594 l -8.78906,0"
         style="font-size:36px;font-variant:normal;font-weight:bold;font-stretch:normal;text-align:start;writing-mode:lr-tb;text-anchor:start;font-family:FrizQuadrata BT;-inkscape-font-specification:FrizQuadrata BT Bold"
         id="path3148"
         inkscape:connector-curvature="0" />
    </g>
    <flowRoot
       xml:space="preserve"
       id="flowRoot4572"
       style="font-size:40px;font-style:normal;font-weight:normal;line-height:125%;letter-spacing:0px;word-spacing:0px;fill:#000000;fill-opacity:1;stroke:none;font-family:Sans"
       transform="matrix(1.8799885,0,0,1.9481703,-15.273275,-306.3048)"><flowRegion
         id="flowRegion4574"><rect
           id="rect4576"
           width="6225"
           height="5000"
           x="-1775"
           y="-3094.6814" /></flowRegion><flowPara
         id="flowPara4578" /></flowRoot>  </g>
</svg>
